<?xml version="1.0" encoding="utf-8"?>
<!-- Generator: Adobe Illustrator 21.1.0, SVG Export Plug-In . SVG Version: 6.00 Build 0)  -->
<svg version="1.1" id="Layer_1" xmlns="http://www.w3.org/2000/svg" xmlns:xlink="http://www.w3.org/1999/xlink" x="0px" y="0px"
	 viewBox="0 0 16 16" style="enable-background:new 0 0 16 16;" xml:space="preserve">
<style type="text/css">
	.Arched_x0020_Green{fill:url(#SVGID_1_);stroke:#FFFFFF;stroke-width:0.25;stroke-miterlimit:1;}
	.st0{fill:#50863D;}
	.st1{fill:none;}
	.st2{fill:#0D3E63;}
	.st3{fill:#FFFFFF;}
	.st4{display:none;fill:#0D3E63;}
	.st5{display:none;}
	.st6{display:inline;fill:#50863D;}
</style>
<linearGradient id="SVGID_1_" gradientUnits="userSpaceOnUse" x1="-8" y1="-8" x2="-7.2929" y2="-8.7071">
	<stop  offset="0" style="stop-color:#20AC4B"/>
	<stop  offset="0.9831" style="stop-color:#19361A"/>
</linearGradient>
<g>
	<path class="st0" d="M9.2,4.9c0,0.6-0.5,1.2-1.2,1.2c-0.6,0-1.2-0.5-1.2-1.2c0-0.6,0.5-1.2,1.2-1.2C8.7,3.7,9.2,4.3,9.2,4.9"/>
	<g>
		<path class="st1" d="M11.4,15c-0.4,0.2-0.7,0.3-1.1,0.4v0C10.7,15.3,11,15.2,11.4,15z"/>
		<path class="st0" d="M1,7c0-2,0.8-3.7,2.2-5c0,0,0,0,0,0C1.4,3.4,0.2,5.5,0.2,8c0,3.5,2.4,6.5,5.6,7.5v-1.9C3,12.6,1,10,1,7z"/>
		<path class="st0" d="M15.9,8c0-2.2-0.9-4.1-2.3-5.5c1.1,1.2,1.7,2.8,1.7,4.5c0,3.1-2.1,5.7-4.9,6.6v1.8c0.4-0.1,0.8-0.3,1.1-0.4
			c0,0,0,0,0,0C14.1,13.7,15.9,11.1,15.9,8z"/>
		<path class="st0" d="M13.5,2.4C13.5,2.4,13.5,2.4,13.5,2.4c-0.1-0.1-0.1-0.1-0.1-0.1C13.5,2.4,13.5,2.4,13.5,2.4z"/>
		<path class="st2" d="M9.1,13.6v-0.4v-0.4V7.7c0-0.3-0.3-0.6-0.6-0.6H7.8c-0.3,0-0.6,0.3-0.6,0.6v5.1v0.5v0.4v2
			c0.6,0.1,1.2,0.1,1.9,0V13.6z"/>
	</g>
	<path class="st3" d="M7.1,4.6C7.1,4.6,7,4.6,7.1,4.6C7,4.6,7,4.6,7,4.6C7,4.5,7,4.5,7.1,4.6C7,4.5,7.1,4.5,7.1,4.6 M7,4.7L7,4.7
		l0.1,0.5H7V4.7z"/>
	<path class="st3" d="M7.2,5.2V4.5h0.3c0.1,0,0.1,0,0.2,0c0,0,0.1,0,0.1,0c0,0,0.1,0.1,0.1,0.1c0,0.1,0,0.1,0,0.2c0,0.1,0,0.1,0,0.2
		c0,0.1-0.1,0.1-0.1,0.1c0,0-0.1,0-0.1,0c0,0-0.1,0-0.2,0H7.2z M7.4,5L7.4,5c0.1,0,0.2,0,0.2,0c0,0,0-0.1,0-0.1c0-0.1,0-0.1,0-0.1
		c0,0-0.1,0-0.1,0H7.4V5z"/>
	<rect x="7.9" y="4.5" class="st3" width="0.1" height="0.7"/>
	<rect x="8.2" y="4.5" class="st3" width="0.1" height="0.7"/>
	<path class="st3" d="M8.5,4.6v0.1h0.1v0.1H8.5V5c0,0.1,0,0.1,0.1,0.1c0,0,0,0,0,0l0,0.1c0,0,0,0-0.1,0c0,0-0.1,0-0.1,0
		c0,0,0-0.1,0-0.1V4.8H8.3V4.7h0.1L8.5,4.6L8.5,4.6z"/>
	<path class="st3" d="M9.1,4.5V5c0,0,0,0.1,0,0.1H9l0-0.1h0C9,5.1,9,5.2,8.9,5.2c-0.1,0-0.2-0.1-0.2-0.2c0-0.2,0.1-0.2,0.2-0.2
		C9,4.7,9,4.7,9,4.7h0L9.1,4.5L9.1,4.5z M9,4.9C9,4.9,9,4.9,9,4.9C9,4.8,9,4.7,8.9,4.7c-0.1,0-0.1,0.1-0.1,0.2c0,0.1,0,0.2,0.1,0.2
		C9,5.1,9,5.1,9,5C9,5,9,5,9,4.9L9,4.9z"/>
	<path class="st4" d="M-7.2,26c-0.2,2.2-1.8,2.9-3.4,2.9h-2.1V26h0.4v-3.4h1.4c1.6,0,3.2,0.9,3.3,3.1c0,0.1,0,0.2,0,0.3H-7.2z
		 M-8.1,26c0-0.1,0-0.2,0-0.3c0-1.8-1.2-2.7-2.9-2.7h-0.9v3h0.9v1.6h0.2c1,0,1.8-0.5,1.9-1.6H-8.1z"/>
	<path class="st4" d="M-6.8,26.8c0-0.3,0-0.5,0.1-0.8h0.1c0.3-1,1-1.5,2-1.5c1.2,0,1.7,0.7,2,1.5h0.1c0.1,0.2,0.1,0.4,0.1,0.6
		c0,0.1,0,0.3,0,0.4h-2.8c0,0.2,0.2,0.7,0.8,0.7c0.6,0,0.8-0.4,0.8-0.4l1.1,0.7c0,0-0.5,1-2,1C-6,29-6.8,28.1-6.8,26.8 M-6.2,26h1
		c-0.1,0.1-0.1,0.2-0.1,0.4H-4c0-0.1,0-0.3-0.1-0.4h1c-0.2-0.5-0.6-1.1-1.5-1.1C-5.6,24.9-6,25.5-6.2,26"/>
	<path class="st4" d="M0.5,26c0,0,1.2,0.5,1.2,1.5c0,1-0.7,1.5-1.8,1.5c-0.9,0-1.5-0.2-2.1-0.7l0.6-1c0.5,0.4,1,0.6,1.4,0.6
		c0.2,0,0.4-0.1,0.4-0.2C0.2,27.1-2,27-2,25.9c0-0.3,0-1.4,1.8-1.4c0.5,0,1.1,0.2,1.5,0.5L1,25.4c-0.4-0.3-0.9-0.5-1.3-0.5
		c-0.6,0-1.1,0.2-1.1,0.6c0,0.2,0.1,0.4,0.3,0.5H0.5z"/>
	<path class="st4" d="M2.6,26v-1.4h0.5V26h0.6v2.9H2.1V26H2.6z M2.6,22.6h0.5v1.1H2.6V22.6z"/>
	<path class="st4" d="M8.6,26h0.3v2.3c0,1.2-0.4,2.5-2.4,2.5c-0.9,0-1.6-0.3-1.9-0.5L5,29.2c0,0,0.6,0.4,1.1,0.4
		c0.8,0,1.2-0.3,1.2-0.8v-0.4c-0.1,0.2-0.6,0.5-1.3,0.5c-1.2,0-2-0.9-2-2.2c0-0.2,0-0.5,0.1-0.7h0.3c0.3-0.9,1.1-1.5,2-1.5
		c0.9,0,1.5,0.6,1.7,0.9l0-0.8h0.4V26z M7,26H8c-0.2-0.7-0.8-1.1-1.5-1.1c-0.7,0-1.3,0.4-1.5,1.1h1.1c-0.3,0.2-0.4,0.4-0.4,0.7
		c0,0.5,0.4,0.9,0.8,0.9c0.6,0,0.9-0.4,0.9-0.9c0-0.2-0.1-0.4-0.2-0.6C7.1,26.1,7,26.1,7,26"/>
	<path class="st4" d="M9.8,26v-1.4h0.4l0,0.8c0.3-0.4,0.9-0.9,1.8-0.9c1,0,1.3,0.7,1.3,1.5h0.3v2.9H12V26h0.8c0-0.4,0-1.1-0.9-1.1
		c-0.8,0-1.4,0.6-1.7,1.1h0.8v2.9H9.5V26H9.8z"/>
	<polygon class="st4" points="16.4,28.9 16.4,26 16.9,26 16.9,22.6 17.3,22.6 17.3,26 18.2,26 18.2,27.5 20.8,27.5 20.8,28.9 	"/>
	<path class="st4" d="M24.5,26L24.5,26c0-0.8-0.9-1.1-1.5-1.1c-0.4,0-0.8,0.1-0.8,0.1l-0.1-0.4c0,0,0.5-0.2,1.1-0.2
		c1,0,1.7,0.5,1.8,1.6h0.4c0,0.2,0.1,0.4,0.1,0.6v2.3h-1.6l0-0.4c0,0-0.4,0.5-1.2,0.5c-0.9,0-1.6-0.5-1.6-1.5c0-1.1,0.9-1.5,1.8-1.5
		c0.4,0,0.9,0.1,1.1,0.3v-0.2c0,0,0-0.1,0-0.1H24.5z M23.2,27c-0.4,0-0.7,0.2-0.7,0.6c0,0.4,0.4,0.5,0.7,0.5c0.3,0,0.6-0.1,0.7-0.5
		C23.9,27.2,23.5,27,23.2,27"/>
	<path class="st4" d="M30.4,26h0.2c0.1,0.2,0.1,0.5,0.1,0.7c0,1.3-0.8,2.3-1.9,2.3c-0.7,0-1-0.2-1.2-0.5l-0.1,0.4h-1.4V26h0.2v-3.4
		h0.5v2.8c0.3-0.4,0.9-0.9,1.8-0.9c0.8,0,1.4,0.4,1.8,1.1C30.3,25.7,30.4,25.9,30.4,26 M29.9,26c-0.3-0.6-0.7-1.1-1.5-1.1
		c-0.7,0-1.3,0.4-1.6,1.1h1.2c-0.3,0.1-0.5,0.4-0.5,0.7c0,0.5,0.3,0.8,0.8,0.8c0.4,0,0.8-0.3,0.8-0.8c0-0.3-0.2-0.6-0.5-0.7H29.9z"
		/>
	<g class="st5">
		<path class="st6" d="M-12.6,21.1v-3.2l-0.1-3.8h0.8h0.5l0,0h0.7v7H-12.6z"/>
		<path class="st6" d="M-9.7,17.9v-1.6h0.5l0,0.8c0.4-0.4,1-1,2-1c1.2,0,1.5,0.7,1.5,1.7h0.3v3.2h-1.8v-3.2h0.9c0-0.4-0.1-1.2-1-1.2
			c-0.9,0-1.6,0.7-1.9,1.2h0.9v3.2H-10v-3.2H-9.7z"/>
		<path class="st6" d="M-4.4,17.9v-1.6h0.5l0,0.8c0.4-0.4,1-1,2-1c1.2,0,1.5,0.7,1.5,1.7h0.3v3.2h-1.8v-3.2h0.9c0-0.4-0.1-1.2-1-1.2
			c-0.9,0-1.6,0.7-1.9,1.2h0.9v3.2h-1.8v-3.2H-4.4z"/>
		<path class="st6" d="M0.5,18.8c0-1.4,1.2-2.5,2.6-2.5c1.5,0,2.6,1.1,2.6,2.5c0,1.3-0.9,2.5-2.6,2.5C1.5,21.3,0.5,20.1,0.5,18.8z
			 M4.8,17.9c-0.3-0.8-0.9-1.2-1.8-1.2c-0.9,0-1.5,0.4-1.8,1.2h1.5c-0.3,0.1-0.5,0.5-0.5,0.8c0,0.5,0.4,0.9,0.9,0.9
			c0.5,0,0.9-0.4,0.9-0.9c0-0.4-0.2-0.7-0.6-0.8H4.8z"/>
		<path class="st6" d="M10.2,16.4l-0.6,1.6h0.6l-1.3,3.2H7l-1.2-3.2h0.7l-0.7-1.6h0.5L7,17.9h0.4l0.6,1.6l0.6-1.6H9l0.6-1.6H10.2z"
			/>
		<path class="st6" d="M14.1,18L14.1,18c0-0.9-1-1.2-1.7-1.2c-0.5,0-0.9,0.2-0.9,0.2l-0.1-0.5c0,0,0.5-0.2,1.2-0.2
			c1.1,0,2,0.6,2,1.7h0.5c0,0.2,0.1,0.4,0.1,0.7v2.5h-1.8l-0.1-0.4c0,0-0.4,0.5-1.4,0.5c-1,0-1.8-0.6-1.8-1.6c0-1.2,1-1.6,2-1.6
			c0.4,0,1,0.1,1.3,0.4v-0.3c0-0.1,0-0.1,0-0.2H14.1z M12.6,19c-0.4,0-0.8,0.2-0.8,0.6c0,0.4,0.4,0.5,0.8,0.5c0.4,0,0.7-0.2,0.8-0.5
			C13.4,19.2,13,19,12.6,19z"/>
		<path class="st6" d="M17.1,16.9v1.1h0.6v1.3c0,0.2,0.1,0.4,0.4,0.4h0.5v1.5h-1.1c-1.4,0-1.5-0.9-1.5-1.1v-2.1h0.7v-1.1h-0.8v-0.5
			h0.8v-1.5h0.5v1.5H18v0.5H17.1z"/>
		<path class="st6" d="M19.7,17.9v-1.6h0.5v1.6h0.6v3.2h-1.8v-3.2H19.7z M19.7,15.4v-1.2h0.6v1.2H19.7z"/>
		<path class="st6" d="M25.6,16.4L25,17.9h0.6l-1.3,3.2h-1.9l-1.2-3.2h0.7l-0.7-1.6h0.5l0.7,1.6h0.4l0.6,1.6l0.6-1.6h0.5l0.6-1.6
			H25.6z"/>
		<path class="st6" d="M25.8,18.8c0-0.3,0-0.6,0.1-0.8H26c0.4-1.1,1.2-1.7,2.3-1.7c1.3,0,1.9,0.8,2.2,1.7h0.1
			c0.1,0.2,0.1,0.5,0.1,0.7c0,0.1,0,0.3,0,0.4h-3.2c0,0.2,0.2,0.8,0.9,0.8c0.7,0,0.9-0.5,0.9-0.5l1.3,0.7c0,0-0.6,1.1-2.3,1.1
			C26.7,21.3,25.8,20.2,25.8,18.8z M26.5,17.9h1.1c-0.1,0.1-0.1,0.3-0.1,0.4H29c0-0.2,0-0.3-0.1-0.4H30c-0.2-0.6-0.7-1.2-1.8-1.2
			C27.2,16.7,26.7,17.4,26.5,17.9z"/>
	</g>
	<path class="st2" d="M4.8,12.3"/>
	<g>
		<path class="st2" d="M2,7.8C2,4.6,4.7,2,8.1,2s6.1,2.6,6.1,5.8c0,1.9-0.9,3.6-2.4,4.6c1.9-1.2,3.1-3.2,3.1-5.6
			c0-3.7-3-6.7-6.8-6.7c-3.8,0-6.8,3-6.8,6.7c0,2.4,1.3,4.5,3.3,5.7l0,0C3,11.5,2,9.8,2,7.8z"/>
		<path class="st2" d="M11.7,12.5L11.7,12.5C11.7,12.5,11.7,12.5,11.7,12.5C11.7,12.5,11.7,12.5,11.7,12.5z"/>
	</g>
</g>
</svg>
